<svg width="20" height="18" viewBox="0 0 20 18" fill="none" xmlns="http://www.w3.org/2000/svg">
<path d="M18.7979 7.59622C18.7161 7.58294 18.6332 7.57681 18.5504 7.57789H4.44077L4.74844 7.43479C5.04917 7.29245 5.32275 7.09873 5.55694 6.86239L9.51363 2.9057C10.0347 2.40826 10.1223 1.60802 9.72112 1.00964C9.25422 0.372004 8.35882 0.233556 7.72114 0.700461C7.66962 0.738204 7.62066 0.779344 7.57464 0.823616L0.419694 7.97856C-0.139465 8.5371 -0.139957 9.44314 0.418576 10.0023C0.418933 10.0027 0.419336 10.0031 0.419694 10.0034L7.57464 17.1584C8.13425 17.7164 9.04029 17.7151 9.59837 17.1555C9.64229 17.1115 9.68329 17.0646 9.72112 17.0153C10.1223 16.4169 10.0347 15.6166 9.51363 15.1192L5.5641 11.1554C5.35415 10.9452 5.11276 10.7689 4.84861 10.633L4.41931 10.4399H18.4716C19.2026 10.467 19.844 9.95637 19.9813 9.23783C20.1078 8.45772 19.578 7.72277 18.7979 7.59622Z" fill="white"/>
</svg>
