<svg width="30" height="30" viewBox="0 0 30 30" fill="none" xmlns="http://www.w3.org/2000/svg">
<path d="M10.1118 25.2873C10.1118 24.9128 9.8622 24.6632 9.48766 24.6632H9.05077V23.3524C10.6736 23.0403 11.9221 21.6671 11.9221 19.9194C11.9221 17.9845 10.3615 16.424 8.4266 16.424C6.49166 16.424 4.93115 17.9845 4.93115 19.9194C4.93115 21.6047 6.17948 23.0403 7.80244 23.3524V24.6632H7.36555C6.99101 24.6632 6.74139 24.9128 6.74139 25.2873C6.74139 25.6619 6.99101 25.9115 7.36555 25.9115H9.48756C9.86209 25.9116 10.1118 25.6619 10.1118 25.2873ZM6.17948 19.9819C6.17948 18.7335 7.17818 17.7348 8.4265 17.7348C9.67482 17.7348 10.6735 18.7335 10.6735 19.9819C10.6735 20.9806 9.98691 21.8544 9.05066 22.1041V19.9819C9.05066 19.6073 8.80104 19.3577 8.4265 19.3577C8.05196 19.3577 7.80234 19.6073 7.80234 19.9819V22.1041C6.86599 21.792 6.17948 20.9806 6.17948 19.9819Z" fill="white"/>
<path d="M29.3991 27.1599H21.784C22.5955 26.8478 23.2821 26.4733 23.7814 25.9739C24.4056 25.3497 24.6553 24.6631 24.6553 23.8517C24.6553 22.5409 23.8439 20.9804 22.5331 19.42L26.4655 5.37584L28.5877 5.06376C28.8373 5.0013 29.0246 4.87649 29.087 4.68922L29.9609 2.44219C30.0857 2.13011 29.8985 1.75557 29.5864 1.63076C29.2743 1.50595 28.8998 1.69322 28.7749 2.0053L28.0883 3.87789L22.4082 4.68932C22.0961 4.75178 21.8464 5.06386 21.8464 5.37594C21.9088 5.68802 22.1585 5.93775 22.4706 5.93775H22.533L25.0922 5.56321L21.472 18.3589C17.8517 14.801 11.9843 11.5553 8.4265 11.5553C8.36404 11.5553 8.30169 11.5553 8.23923 11.5553L6.4291 6.81143H9.48755C9.86209 6.81143 10.1117 6.56181 10.1117 6.18727C10.1117 5.81273 9.86209 5.56311 9.48755 5.56311H3.30818L2.12221 4.06506C1.93494 3.81543 1.49805 3.75298 1.24832 3.94025C0.9987 4.12751 0.936243 4.56441 1.12351 4.81413L2.49675 6.56181C2.62156 6.68662 2.80883 6.81143 2.9961 6.81143H5.05586L6.92845 11.68C2.9961 12.3666 0 15.7997 0 19.9817C0 23.0402 1.62286 25.6618 4.05716 27.1599H0.624162C0.249623 27.1599 0 27.4095 0 27.784C0 28.1586 0.249623 28.4082 0.624162 28.4082H29.3366C29.7112 28.4082 29.9608 28.1586 29.9608 27.784C30.0233 27.4095 29.7736 27.1599 29.3991 27.1599ZM1.31078 19.9818C1.31078 16.0495 4.55651 12.8036 8.48895 12.8036C13.6697 12.8036 23.4694 20.0442 23.4694 23.8517C23.4694 24.2886 23.2821 24.7256 22.9076 25.1C20.7229 27.2222 13.1703 27.2222 9.48755 27.1598H8.48885C4.55661 27.0974 1.31078 23.9142 1.31078 19.9818Z" fill="white"/>
</svg>
