<svg width="108" height="109" viewBox="0 0 108 109" fill="none" xmlns="http://www.w3.org/2000/svg">
<path d="M0.569843 38.143C2.42984 50.896 6.39284 55.636 8.72984 71.464C9.44984 77.053 12.4888 91.069 12.4888 91.069C13.5358 98.272 17.0158 110.809 33.4798 108.775C47.3368 107.071 48.5338 93.73 47.5528 85.381L46.4368 75.469C46.1578 54.649 48.0178 52.786 47.9998 23.362C47.9758 9.229 37.0588 -0.337998 25.0318 1.147C3.55184 3.835 -1.96516 20.914 0.569843 38.143ZM82.3708 0.556004C70.3408 -0.928997 59.4268 8.638 59.4028 22.771C59.3848 52.198 61.2418 54.058 60.9658 74.878L59.8498 84.79C58.8718 93.139 60.0628 106.477 73.9198 108.187C90.3838 110.221 93.8638 97.681 94.9138 90.481C94.9138 90.481 97.9498 76.465 98.6698 70.873C101.004 55.045 104.973 50.305 106.833 37.552C109.368 20.314 103.851 3.238 82.3708 0.556004Z" fill="#455A64"/>
<path d="M47.5528 85.387L47.1118 81.454L46.6888 81.883L42.3058 77.5L46.3138 73.492L46.4248 73.603C46.4008 70.258 46.4308 67.384 46.4998 64.819L46.3108 65.008L42.1168 60.814L46.4068 56.524L46.8538 56.968C47.0428 53.818 47.2588 50.698 47.4568 46.99L46.4068 48.04L42.3988 44.032L46.5928 39.838L47.7238 40.969C47.8378 37.852 47.9188 34.225 47.9638 29.983L46.5898 31.354L42.6748 27.439L46.6828 23.431L47.9908 24.739C47.9908 24.271 47.9938 23.854 47.9938 23.371C47.9878 20.23 47.4208 17.329 46.4458 14.71L42.4858 10.753L43.7188 9.523C42.5278 7.858 41.1298 6.40301 39.5668 5.18801L38.2498 6.50801L34.2418 2.50001L34.4368 2.30801C31.5148 1.19501 28.3198 0.748006 25.0318 1.15301C24.8458 1.17701 24.6838 1.219 24.5008 1.246L25.7578 2.50001L21.7498 6.50801L17.9728 2.73101C15.8248 3.44801 13.9048 4.35701 12.1798 5.42201L17.5048 10.747L13.3108 14.941L7.52976 9.163C6.10776 10.639 4.89576 12.262 3.90276 14.02L9.06876 19.189L4.77876 23.479L1.39776 20.098C0.737761 22.402 0.33576 24.829 0.14676 27.328L0.53676 27.721L0.074761 28.183C-0.102239 31.429 0.0747609 34.78 0.569761 38.143C1.25676 42.847 2.22876 46.456 3.29976 49.942L4.77876 48.463L8.97276 52.657L5.30376 56.326C6.37176 59.827 7.42776 63.733 8.30976 68.872L8.69076 69.253L8.41476 69.529C8.51976 70.165 8.62476 70.798 8.72676 71.467C8.90676 72.85 9.22476 74.749 9.60576 76.819L12.9328 73.495L16.9408 77.503L12.5578 81.886L10.0948 79.429C11.0038 84.139 12.0388 89.011 12.3718 90.556L12.5578 90.37L16.7518 94.561L13.9588 97.357C14.6278 99.283 15.5668 101.206 16.8658 102.934L20.9998 98.806L25.3828 103.189L21.5398 107.032C23.3518 108.022 25.5388 108.685 28.1488 108.907L29.6278 107.431L31.1488 108.955C31.9018 108.919 32.6638 108.889 33.4828 108.781C35.2768 108.562 36.8518 108.136 38.2408 107.566L33.8668 103.189L38.2498 98.806L43.3738 103.927C44.7748 102.352 45.7708 100.498 46.4578 98.53L42.4918 94.564L46.6858 90.373L47.7568 91.441C47.8678 89.302 47.7688 87.22 47.5528 85.387ZM4.78176 39.976L0.77376 35.968L4.78176 31.96L8.78976 35.968L4.78176 39.976ZM37.8748 56.569L33.8668 52.561L38.1568 48.271L42.1648 52.279L37.8748 56.569ZM42.0688 69.25L38.0608 73.258L33.8668 69.064L37.8748 65.056L42.0688 69.25ZM38.2498 14.992L42.4438 19.186L38.4358 23.194L34.2418 19L38.2498 14.992ZM38.4388 31.681L42.3538 35.596L38.1598 39.79L34.2448 35.875L38.4388 31.681ZM29.9998 6.74201L34.0078 10.75L29.9998 14.758L25.9918 10.75L29.9998 6.74201ZM29.9998 23.242L34.1938 27.436L29.9998 31.633L25.8058 27.439L29.9998 23.242ZM29.9998 40.117L33.9148 44.032L29.6248 48.322L25.7098 44.407L29.9998 40.117ZM29.6248 73.306L33.8188 77.5L29.6248 81.694L25.4308 77.5L29.6248 73.306ZM25.6168 60.814L29.6248 56.806L33.6328 60.814L29.6248 64.822L25.6168 60.814ZM21.7498 14.992L25.7578 19L21.5638 23.194L17.5558 19.186L21.7498 14.992ZM21.5638 31.681L25.7578 35.875L21.4678 40.165L17.2738 35.971L21.5638 31.681ZM21.3748 56.569L17.4598 52.651L21.4678 48.643L25.3828 52.558L21.3748 56.569ZM25.3828 69.064L21.1888 73.258L17.1808 69.25L21.3748 65.056L25.3828 69.064ZM13.3138 23.431L17.3218 27.439L13.0318 31.729L9.02376 27.721L13.3138 23.431ZM13.0318 40.21L17.2258 44.404L13.2178 48.412L9.02376 44.218L13.0318 40.21ZM12.9388 65.008L9.02376 61.093L13.2178 56.899L17.1328 60.814L12.9388 65.008ZM16.8058 86.125L21.1888 81.742L25.3828 85.936L20.9998 90.319L16.8058 86.125ZM29.6248 98.944L25.2418 94.561L29.6248 90.178L34.0078 94.561L29.6248 98.944ZM38.2498 90.319L33.8668 85.936L38.0608 81.742L42.4438 86.125L38.2498 90.319ZM59.6428 90.841L60.7138 89.77L64.9078 93.964L60.9418 97.93C61.6288 99.895 62.6278 101.743 64.0258 103.327L69.1468 98.206L73.5328 102.589L69.1618 106.96C70.5508 107.533 72.1228 107.962 73.9198 108.178C74.7328 108.28 75.4948 108.319 76.2478 108.355L77.7718 106.831L79.2478 108.307C81.8608 108.085 84.0508 107.422 85.8568 106.432L82.0138 102.589L86.3968 98.206L90.5248 102.331C91.8268 100.609 92.7598 98.68 93.4318 96.757L90.6388 93.964L94.8298 89.77L95.0188 89.959C95.3488 88.411 96.3867 83.542 97.2988 78.826L94.8388 81.286L90.4558 76.903L94.4638 72.895L97.7908 76.222C98.1718 74.149 98.4868 72.25 98.6698 70.867C98.7658 70.192 98.8708 69.559 98.9818 68.929L98.7058 68.653L99.0868 68.272C99.9688 63.133 101.025 59.227 102.093 55.726L98.4238 52.057L102.615 47.863L104.094 49.342C105.159 45.859 106.14 42.25 106.824 37.543C107.316 34.18 107.496 30.829 107.316 27.583L106.857 27.121L107.25 26.728C107.061 24.229 106.662 21.799 105.996 19.498L102.615 22.879L98.3217 18.589L103.494 13.42C102.498 11.662 101.289 10.039 99.8668 8.56301L94.0798 14.347L89.8888 10.153L95.2108 4.82801C93.4918 3.76301 91.5658 2.85401 89.4208 2.13701L85.6408 5.91401L81.6328 1.90601L82.8868 0.652005C82.7038 0.625005 82.5478 0.583006 82.3588 0.559006C79.0648 0.154006 75.8758 0.601005 72.9538 1.71401L73.1428 1.90601L69.1348 5.91401L67.8148 4.59101C66.2518 5.80601 64.8568 7.26401 63.6658 8.92601L64.8928 10.156L60.9358 14.113C59.9638 16.732 59.3908 19.633 59.3848 22.774C59.3848 23.257 59.3908 23.674 59.3908 24.142L60.7018 22.834L64.7098 26.842L60.7948 30.757L59.4238 29.386C59.4658 33.628 59.5468 37.255 59.6638 40.372L60.7948 39.241L64.9858 43.435L60.9778 47.443L59.9248 46.393C60.1198 50.101 60.3448 53.221 60.5278 56.371L60.9718 55.927L65.2618 60.214L61.0678 64.408L60.8788 64.219C60.9478 66.781 60.9778 69.658 60.9538 73.003L61.0648 72.892L65.0728 76.9L60.6898 81.283L60.2638 80.857L59.8228 84.787C59.6338 86.623 59.5378 88.702 59.6428 90.841ZM98.6127 35.371L102.621 31.363L106.629 35.371L102.621 39.379L98.6127 35.371ZM65.2378 51.685L69.2458 47.677L73.5358 51.967L69.5278 55.975L65.2378 51.685ZM69.5278 64.456L73.5358 68.464L69.3418 72.655L65.3338 68.647L69.5278 64.456ZM73.1608 18.403L68.9668 22.597L64.9588 18.589L69.1528 14.395L73.1608 18.403ZM73.1608 35.278L69.2458 39.193L65.0518 34.999L68.9668 31.084L73.1608 35.278ZM81.4108 10.153L77.4028 14.161L73.3948 10.153L77.4028 6.14501L81.4108 10.153ZM81.5968 26.839L77.4028 31.033L73.2088 26.839L77.4028 22.645L81.5968 26.839ZM81.6898 43.81L77.7718 47.725L73.4818 43.435L77.3998 39.52L81.6898 43.81ZM81.9718 76.903L77.7778 81.097L73.5838 76.903L77.7778 72.709L81.9718 76.903ZM77.7778 64.222L73.7698 60.214L77.7778 56.206L81.7858 60.214L77.7778 64.222ZM89.8468 18.589L85.8388 22.597L81.6448 18.403L85.6528 14.395L89.8468 18.589ZM90.1288 35.371L85.9348 39.565L81.6448 35.275L85.8388 31.081L90.1288 35.371ZM82.0198 51.964L85.9348 48.049L89.9428 52.057L86.0278 55.972L82.0198 51.964ZM86.0278 64.456L90.2218 68.647L86.2138 72.655L82.0198 68.464L86.0278 64.456ZM98.3788 27.121L94.3708 31.129L90.0808 26.839L94.0888 22.831L98.3788 27.121ZM98.3788 43.621L94.1848 47.815L90.1768 43.807L94.3708 39.613L98.3788 43.621ZM90.2698 60.214L94.1848 56.299L98.3788 60.493L94.4638 64.408L90.2698 60.214ZM86.4028 89.722L82.0198 85.339L86.2138 81.145L90.5968 85.528L86.4028 89.722ZM73.3948 93.964L77.7778 89.581L82.1608 93.964L77.7778 98.347L73.3948 93.964ZM64.9558 85.528L69.3388 81.145L73.5328 85.339L69.1468 89.722L64.9558 85.528Z" fill="#546E7A"/>
<path d="M27.4889 7.00001C35.7449 7.00001 41.9849 14.044 41.9999 23.371C42.0089 38.5 41.5169 46.255 41.0819 53.098C40.6649 59.668 40.3019 65.344 40.4399 75.553L40.4429 75.853L40.4759 76.147L41.5949 86.086C42.4229 93.127 41.5589 101.743 32.7449 102.826C31.8059 102.94 30.8999 103 30.0599 103C25.2269 103 20.0639 101.482 18.4289 90.208L18.3989 90.004L18.3539 89.806C18.3239 89.665 15.3629 75.982 14.6669 70.594C13.3679 61.783 11.5559 56.107 9.95692 51.097C8.54092 46.666 7.32292 42.841 6.50992 37.276C5.14192 28 6.56092 20.044 10.4999 14.866C13.7609 10.573 18.9029 7.96601 25.7699 7.10501C26.3399 7.03601 26.9189 7.00001 27.4889 7.00001ZM27.4889 1.00001C26.6759 1.00001 25.8599 1.05102 25.0349 1.15302C3.55193 3.83802 -1.96508 20.914 0.572924 38.143C2.43292 50.896 6.39592 55.636 8.73292 71.464C9.45292 77.053 12.4919 91.069 12.4919 91.069C13.4579 97.747 16.5179 109 30.0599 109C31.1339 109 32.2709 108.931 33.4829 108.781C47.3399 107.074 48.5369 93.736 47.5559 85.387L46.4399 75.475C46.1609 54.655 48.0209 52.792 48.0029 23.368C47.9759 10.204 38.5049 1.00001 27.4889 1.00001ZM79.9169 6.40302C80.4839 6.40302 81.0659 6.43901 81.6329 6.50801C88.4999 7.36901 93.6419 9.97602 96.9029 14.269C100.842 19.447 102.258 27.403 100.896 36.673C100.083 42.238 98.8619 46.066 97.4489 50.494C95.8529 55.504 94.0379 61.183 92.7419 69.991C92.0489 75.379 89.0819 89.065 89.0549 89.2L89.0069 89.401L88.9769 89.608C87.3419 100.879 82.1789 102.397 77.3459 102.397C76.5029 102.397 75.5999 102.334 74.6579 102.22C65.8439 101.137 64.9799 92.521 65.8109 85.483L66.9299 75.544L66.9659 75.247V74.95C67.1069 64.744 66.7439 59.065 66.3269 52.498C65.8889 45.655 65.3909 37.9 65.4029 22.771C65.4209 13.444 71.6609 6.40302 79.9169 6.40302ZM79.9169 0.403015C68.8979 0.403015 59.4269 9.60701 59.4029 22.771C59.3849 52.198 61.2419 54.058 60.9659 74.878L59.8499 84.79C58.8719 93.139 60.0629 106.477 73.9199 108.187C75.1289 108.334 76.2689 108.403 77.3459 108.403C90.8879 108.403 93.9419 97.15 94.9139 90.475C94.9139 90.475 97.9499 76.456 98.6699 70.867C101.004 55.039 104.973 50.299 106.833 37.546C109.371 20.317 103.854 3.23802 82.3739 0.556015C81.5459 0.451015 80.7239 0.403015 79.9169 0.403015Z" fill="#37474F"/>
<path d="M23.9999 22C32.2199 30.019 38.7269 40.87 38.8769 51.976C38.9999 61 42.8699 64.249 42.8699 64.249C43.3229 63.37 43.6859 62.278 43.8749 60.907C44.3189 57.637 45.5579 55.105 44.6309 46.207C43.8839 38.872 40.1249 23.377 23.9999 13C7.87489 25.627 7.44289 52.6 8.87389 57.751C9.89389 62.056 10.3859 64.771 13.1249 68.752C13.7849 69.598 14.3489 70.234 14.9999 70.786C14.9999 70.786 14.7629 64.021 14.9999 55C15.2969 43.669 19.9589 28.063 23.9999 22ZM83.4029 21.403C75.1829 29.422 68.6789 40.273 68.5259 51.379C68.4029 60.403 64.5359 63.652 64.5359 63.652C64.0799 62.773 63.7229 61.681 63.5279 60.31C63.0839 57.04 61.8449 54.508 62.7719 45.613C63.5159 38.281 67.2779 22.786 83.4029 12.409C99.5279 25.036 99.9629 52.009 98.5259 57.16C97.5059 61.462 97.0139 64.18 94.2779 68.161C93.6179 69.007 93.0539 69.643 92.4029 70.198C92.4029 70.198 92.6399 63.43 92.4029 54.409C92.1029 43.069 87.4439 27.463 83.4029 21.403Z" fill="#FDD835"/>
</svg>
