<svg width="50" height="50" viewBox="0 0 50 50" fill="none" xmlns="http://www.w3.org/2000/svg">
<path d="M40.9179 48.71L38.4692 41.4836C38.3349 41.0872 37.9628 40.8204 37.5443 40.8204H37.4022V26.6593C37.4022 19.8208 31.8388 14.2573 25.0001 14.2573C18.1616 14.2573 12.5981 19.8207 12.5981 26.6593V40.8204H12.456C12.0375 40.8204 11.6654 41.0872 11.5311 41.4836L9.08245 48.71C8.98138 49.0082 9.03031 49.3365 9.21366 49.5924C9.39712 49.8482 9.69248 49.9999 10.0074 49.9999H39.993C40.3078 49.9999 40.6033 49.8482 40.7867 49.5924C40.97 49.3365 41.019 49.0082 40.9179 48.71ZM14.5512 26.6594C14.5512 20.8979 19.2386 16.2104 25.0001 16.2104C30.7617 16.2104 35.449 20.8979 35.449 26.6594V40.8205H14.5512V26.6594ZM11.3694 48.0469L13.1562 42.7736H36.844L38.6309 48.0469H11.3694Z" fill="#CA0030"/>
<path d="M25 0C24.4607 0 24.0234 0.437304 24.0234 0.976564V6.83584C24.0234 7.3751 24.4606 7.8124 25 7.8124C25.5393 7.8124 25.9765 7.3751 25.9765 6.83584V0.976564C25.9765 0.437304 25.5393 0 25 0Z" fill="#CA0030"/>
<path d="M25.6903 9.94955C25.5088 9.76791 25.2568 9.66446 25 9.66446C24.7432 9.66446 24.4912 9.76791 24.3095 9.94955C24.1279 10.1322 24.0234 10.3831 24.0234 10.641C24.0234 10.8978 24.1278 11.1488 24.3095 11.3315C24.4912 11.5129 24.7432 11.6166 25 11.6166C25.2568 11.6166 25.5088 11.5129 25.6903 11.3315C25.872 11.1488 25.9765 10.8978 25.9765 10.641C25.9765 10.3831 25.8721 10.1322 25.6903 9.94955Z" fill="#CA0030"/>
<path d="M9.32664 26.1387H4.84253C4.30328 26.1387 3.86597 26.576 3.86597 27.1153C3.86597 27.6546 4.30328 28.0918 4.84253 28.0918H9.32673C9.866 28.0918 10.3033 27.6546 10.3033 27.1153C10.3033 26.576 9.86591 26.1387 9.32664 26.1387Z" fill="#CA0030"/>
<path d="M1.66763 26.4248C1.48608 26.2431 1.23413 26.1387 0.977292 26.1387C0.720459 26.1387 0.468506 26.2431 0.286866 26.4248C0.105225 26.6066 0.000732422 26.8585 0.000732422 27.1153C0.000732422 27.3721 0.105127 27.6241 0.286866 27.8056C0.468506 27.9873 0.720459 28.0918 0.977292 28.0918C1.23413 28.0918 1.48608 27.9874 1.66763 27.8056C1.84926 27.6241 1.95386 27.3721 1.95386 27.1153C1.95386 26.8585 1.84926 26.6065 1.66763 26.4248Z" fill="#CA0030"/>
<path d="M18.4249 8.69023L17.1013 5.49482C16.8948 4.99659 16.3236 4.76035 15.8253 4.96631C15.3269 5.17275 15.0904 5.74404 15.2967 6.24229L16.6203 9.43772C16.7763 9.81381 17.1398 10.0408 17.523 10.0408C17.6475 10.0408 17.7741 10.0168 17.8964 9.96618C18.3947 9.75963 18.6313 9.18836 18.4249 8.69023Z" fill="#CA0030"/>
<path d="M7.32232 18.7358L4.12691 17.4122C3.62847 17.2064 3.05738 17.4426 2.85094 17.9407C2.64458 18.4391 2.88121 19.0103 3.37944 19.2167L6.57486 20.5404C6.69713 20.5908 6.82369 20.6149 6.9482 20.6149C7.3314 20.6149 7.69497 20.3879 7.85084 20.0118C8.05718 19.5135 7.82056 18.9423 7.32232 18.7358Z" fill="#CA0030"/>
<path d="M45.5646 26.1387H41.0804C40.5411 26.1387 40.1038 26.576 40.1038 27.1153C40.1038 27.6546 40.5411 28.0918 41.0804 28.0918H45.5646C46.1038 28.0918 46.5411 27.6546 46.5411 27.1153C46.5411 26.576 46.1038 26.1387 45.5646 26.1387Z" fill="#CA0030"/>
<path d="M49.7131 26.4248C49.5315 26.2432 49.2795 26.1387 49.0227 26.1387C48.7659 26.1387 48.514 26.2431 48.3323 26.4248C48.1506 26.6066 48.0461 26.8585 48.0461 27.1153C48.0461 27.3721 48.1505 27.6241 48.3323 27.8056C48.514 27.9873 48.7659 28.0918 49.0227 28.0918C49.2795 28.0918 49.5315 27.9874 49.7131 27.8056C49.8947 27.6241 49.9992 27.3721 49.9992 27.1153C49.9992 26.8585 49.8948 26.6065 49.7131 26.4248Z" fill="#CA0030"/>
<path d="M44.3115 7.80357C43.93 7.42233 43.3119 7.42233 42.9304 7.80357L38.1254 12.6086C37.744 12.99 37.744 13.6084 38.1254 13.9898C38.3162 14.1805 38.5661 14.2758 38.816 14.2758C39.066 14.2758 39.3158 14.1804 39.5065 13.9898L44.3115 9.18472C44.6927 8.80338 44.6927 8.18502 44.3115 7.80357Z" fill="#CA0030"/>
<path d="M11.8747 12.6087L7.06975 7.80379C6.68831 7.42254 6.07014 7.42254 5.6886 7.80379C5.30725 8.18514 5.30725 8.8035 5.6886 9.18499L10.4936 13.9899C10.6844 14.1805 10.9343 14.276 11.1842 14.276C11.4341 14.276 11.684 14.1805 11.8747 13.9899C12.2561 13.6084 12.2561 12.9901 11.8747 12.6087Z" fill="#CA0030"/>
<path d="M34.1744 4.96638C33.6761 4.76051 33.1049 4.99675 32.8985 5.49489L31.5748 8.6903C31.3685 9.18855 31.6051 9.75973 32.1033 9.96628C32.2255 10.0168 32.3521 10.0409 32.4766 10.0409C32.8598 10.0409 33.2235 9.81382 33.3793 9.43773L34.7029 6.24235C34.9093 5.74391 34.6726 5.17282 34.1744 4.96638Z" fill="#CA0030"/>
<path d="M47.149 17.9407C46.9425 17.4424 46.3713 17.2062 45.873 17.4122L42.6776 18.7358C42.1792 18.9423 41.9427 19.5135 42.149 20.0118C42.305 20.3879 42.6685 20.6149 43.0517 20.6149C43.1762 20.6149 43.3028 20.5909 43.425 20.5404L46.6204 19.2167C47.1188 19.0103 47.3553 18.439 47.149 17.9407Z" fill="#CA0030"/>
<path d="M25.0001 20.4109C23.3847 20.4109 22.0706 21.7252 22.0706 23.3406V28.0279C22.0706 29.6434 23.3848 30.9576 25.0001 30.9576C26.6155 30.9576 27.9297 29.6433 27.9297 28.0279V23.3406C27.9297 21.7252 26.6156 20.4109 25.0001 20.4109ZM25.9767 28.0279C25.9767 28.5664 25.5386 29.0045 25.0001 29.0045C24.4616 29.0045 24.0236 28.5664 24.0236 28.0279V23.3406C24.0236 22.8021 24.4616 22.364 25.0001 22.364C25.5386 22.364 25.9767 22.8021 25.9767 23.3406V28.0279Z" fill="#CA0030"/>
<path d="M25.0001 32.9107C23.3847 32.9107 22.0706 34.225 22.0706 35.8403C22.0706 37.4557 23.3848 38.7699 25.0001 38.7699C26.6155 38.7699 27.9297 37.4556 27.9297 35.8403C27.9297 34.2249 26.6156 32.9107 25.0001 32.9107ZM25.0001 36.8168C24.4616 36.8168 24.0236 36.3788 24.0236 35.8403C24.0236 35.3018 24.4616 34.8637 25.0001 34.8637C25.5386 34.8637 25.9767 35.3018 25.9767 35.8403C25.9767 36.3788 25.5386 36.8168 25.0001 36.8168Z" fill="#CA0030"/>
</svg>
