<svg width="67" height="17" viewBox="0 0 67 17" fill="none" xmlns="http://www.w3.org/2000/svg">
<path d="M7.27788 10.6826H3.42288L2.61588 13H0.817871L4.57788 3.04691H6.12988L9.89587 13H8.09187L7.27788 10.6826ZM3.90788 9.28812H6.79288L5.35088 5.15922L3.90788 9.28812ZM17.4019 4.44141H14.2989V13H12.5829V4.44141H9.50688V3.04691H17.4019V4.44141ZM24.5319 8.55662H20.4439V11.6191H25.2229V13H18.7149V3.04691H25.1749V4.44141H20.4439V7.18951H24.5319V8.55662ZM34.5259 13H32.7969L28.3599 5.93851V13H26.6309V3.04691H28.3599L32.8109 10.1357V3.04691H34.5259V13ZM44.1649 9.75982C44.0649 10.8216 43.6729 11.651 42.9889 12.248C42.3059 12.8405 41.3959 13.137 40.2619 13.137C39.4689 13.137 38.7689 12.9499 38.1629 12.5762C37.5619 12.1979 37.0969 11.6624 36.7689 10.9697C36.4399 10.277 36.2699 9.47272 36.2559 8.55662V7.62701C36.2559 6.68821 36.4219 5.86102 36.7549 5.14552C37.0879 4.43002 37.5639 3.87862 38.1839 3.49122C38.8079 3.10382 39.5279 2.91022 40.3439 2.91022C41.4419 2.91022 42.3259 3.20872 42.9959 3.80572C43.6659 4.40272 44.0559 5.24581 44.1649 6.33501H42.4419C42.3599 5.61951 42.1509 5.10452 41.8129 4.79002C41.4809 4.47102 40.9909 4.31152 40.3439 4.31152C39.5919 4.31152 39.0129 4.58722 38.6069 5.13872C38.2059 5.68552 38.0009 6.48992 37.9919 7.55182V8.43362C37.9919 9.50912 38.1839 10.3294 38.5659 10.8945C38.9539 11.4596 39.5189 11.7422 40.2619 11.7422C40.9409 11.7422 41.4509 11.5895 41.7929 11.2842C42.1349 10.9788 42.3509 10.4707 42.4419 9.75982H44.1649ZM40.8559 13.014L40.7809 13.383C41.4649 13.506 41.8069 13.9 41.8069 14.565C41.8069 15.044 41.6109 15.418 41.2189 15.687C40.8269 15.955 40.2779 16.09 39.5709 16.09L39.5229 15.153C39.8239 15.153 40.0539 15.099 40.2139 14.989C40.3779 14.884 40.4599 14.736 40.4599 14.545C40.4599 14.34 40.3779 14.196 40.2139 14.114C40.0539 14.037 39.7919 13.987 39.4279 13.964L39.6459 13.014H40.8559ZM51.2879 10.6826H47.4329L46.6259 13H44.8279L48.5879 3.04691H50.1399L53.9059 13H52.1019L51.2879 10.6826ZM47.9179 9.28812H50.8029L49.3599 5.15922L47.9179 9.28812ZM51.8959 0.531212C51.8959 1.03261 51.7509 1.44952 51.4589 1.78222C51.1719 2.11492 50.8099 2.28121 50.3719 2.28121C50.1939 2.28121 50.0389 2.26302 49.9069 2.22662C49.7799 2.18552 49.5949 2.09671 49.3539 1.96001C49.1169 1.82321 48.9479 1.74121 48.8479 1.71391C48.7519 1.68651 48.6449 1.67291 48.5259 1.67291C48.3529 1.67291 48.2049 1.73892 48.0819 1.87112C47.9639 1.99872 47.9039 2.16731 47.9039 2.37701L46.8859 2.32232C46.8859 1.82102 47.0289 1.39942 47.3159 1.05762C47.6079 0.715817 47.9699 0.544914 48.4029 0.544914C48.6629 0.544914 48.9749 0.647516 49.3399 0.852516C49.7089 1.05762 50.0119 1.16022 50.2489 1.16022C50.4219 1.16022 50.5699 1.09642 50.6929 0.968819C50.8159 0.836619 50.8779 0.663419 50.8779 0.449219L51.8959 0.531212ZM62.8339 8.28322C62.8339 9.25852 62.6649 10.1152 62.3279 10.8535C61.9909 11.5872 61.5079 12.1523 60.8789 12.5488C60.2549 12.9408 59.5349 13.137 58.7189 13.137C57.9119 13.137 57.1919 12.9408 56.5589 12.5488C55.9299 12.1523 55.4419 11.5895 55.0959 10.8604C54.7539 10.1312 54.5809 9.29041 54.5759 8.33791V7.77731C54.5759 6.80661 54.7469 5.94992 55.0889 5.20702C55.4349 4.46422 55.9209 3.89681 56.5449 3.50491C57.1739 3.10841 57.8939 2.91022 58.7049 2.91022C59.5159 2.91022 60.2339 3.10612 60.8579 3.49802C61.4869 3.88542 61.9729 4.44602 62.3139 5.17972C62.6559 5.90892 62.8289 6.75881 62.8339 7.72952V8.28322ZM61.1039 7.76372C61.1039 6.66082 60.8949 5.81542 60.4759 5.22752C60.0609 4.63962 59.4709 4.34572 58.7049 4.34572C57.9579 4.34572 57.3719 4.63962 56.9479 5.22752C56.5289 5.81092 56.3149 6.63801 56.3059 7.70901V8.28322C56.3059 9.37702 56.5179 10.2223 56.9409 10.8193C57.3699 11.4163 57.9619 11.7148 58.7189 11.7148C59.4839 11.7148 60.0719 11.4232 60.4819 10.8398C60.8969 10.2565 61.1039 9.40432 61.1039 8.28322V7.76372ZM66.1559 10.0674H64.7279L64.5699 3.04691H66.3199L66.1559 10.0674ZM64.5219 12.2139C64.5219 11.9541 64.6069 11.7399 64.7749 11.5713C64.9439 11.3981 65.1739 11.3115 65.4659 11.3115C65.7569 11.3115 65.9879 11.3981 66.1559 11.5713C66.3249 11.7399 66.4089 11.9541 66.4089 12.2139C66.4089 12.4645 66.3269 12.6742 66.1629 12.8428C65.9989 13.011 65.7669 13.096 65.4659 13.096C65.1649 13.096 64.9329 13.011 64.7689 12.8428C64.6039 12.6742 64.5219 12.4645 64.5219 12.2139Z" fill="#535353"/>
</svg>
