<svg width="15" height="15" viewBox="0 0 15 15" fill="none" xmlns="http://www.w3.org/2000/svg">
<path d="M4.8701 11.2013L7.49997 14.7078L9.05841 12.7597L11.3961 9.35065L12.3701 7.4026L12.8571 5.16234L12.3701 3.31169L11.6883 2.24026L9.83763 0.779219L8.08438 0.292206H6.62334L4.48048 1.07143L2.92204 2.92208L2.14282 5.16234L2.43503 6.72078L3.21425 8.57143L4.8701 11.2013Z" fill="#5666F9"/>
<path d="M7.47143 8.08974C6.05704 8.08974 4.90601 6.9387 4.90601 5.52386C4.90601 4.10901 6.05659 2.95798 7.47143 2.95798C8.88628 2.95798 10.0369 4.10901 10.0369 5.52386C10.0369 6.9387 8.88583 8.08974 7.47143 8.08974ZM7.47143 3.41017C6.30595 3.41017 5.35774 4.35837 5.35774 5.52431C5.35774 6.69025 6.30595 7.63845 7.47143 7.63845C8.63692 7.63845 9.58512 6.69025 9.58512 5.52431C9.58512 4.35837 8.63692 3.41017 7.47143 3.41017Z" fill="#5666F9"/>
<path d="M7.47141 15C7.40455 15 7.34131 14.9706 7.29839 14.9191C7.07975 14.6585 1.948 8.49767 1.948 5.52432C1.948 2.47824 4.42579 0 7.47141 0C10.517 0 12.9948 2.47824 12.9948 5.52432C12.9948 8.49812 7.86307 14.6585 7.64488 14.9196C7.60151 14.9706 7.53782 15 7.47141 15ZM7.47141 0.451739C4.6747 0.451739 2.39974 2.72715 2.39974 5.52432C2.39974 8.04096 6.56296 13.301 7.47141 14.4182C8.37941 13.3006 12.5431 8.04051 12.5431 5.52432C12.5426 2.72715 10.2677 0.451739 7.47141 0.451739Z" fill="#5666F9"/>
<ellipse cx="7.4357" cy="5.48767" rx="2.56558" ry="2.56558" fill="white"/>
</svg>
