<svg width="25" height="34" viewBox="0 0 25 34" fill="none" xmlns="http://www.w3.org/2000/svg">
<path d="M12.2201 17.908C9.09089 17.908 6.54431 15.36 6.54431 12.228C6.54431 9.096 9.08989 6.548 12.2201 6.548C15.3504 6.548 17.896 9.096 17.896 12.228C17.896 15.36 15.3494 17.908 12.2201 17.908ZM12.2201 7.549C9.64158 7.549 7.54375 9.648 7.54375 12.229C7.54375 14.81 9.64158 16.909 12.2201 16.909C14.7987 16.909 16.8965 14.81 16.8965 12.229C16.8965 9.648 14.7987 7.549 12.2201 7.549Z" fill="#5670F9"/>
<path d="M12.2202 33.205C12.0722 33.205 11.9323 33.14 11.8374 33.026C11.3536 32.449 0 18.811 0 12.229C0 5.486 5.48193 0 12.2202 0C18.9584 0 24.4403 5.486 24.4403 12.229C24.4403 18.812 13.0867 32.449 12.6039 33.027C12.508 33.14 12.3671 33.205 12.2202 33.205ZM12.2202 1C6.03262 1 0.99944 6.037 0.99944 12.229C0.99944 17.8 10.2103 29.444 12.2202 31.917C14.229 29.443 23.4409 17.799 23.4409 12.229C23.4399 6.037 18.4067 1 12.2202 1Z" fill="#5670F9"/>
</svg>
