<svg width="66" height="16" viewBox="0 0 66 16" fill="none" xmlns="http://www.w3.org/2000/svg">
<path d="M6.46001 10.2334H2.60501L1.798 12.5508H0L3.76001 2.59769H5.31201L9.078 12.5508H7.274L6.46001 10.2334ZM3.09001 8.8389H5.97501L4.533 4.71L3.09001 8.8389ZM16.584 3.9922H13.481V12.5508H11.765V3.9922H8.68901V2.59769H16.584V3.9922ZM23.714 8.1074H19.626V11.1699H24.405V12.5508H17.897V2.59769H24.357V3.9922H19.626V6.7403H23.714V8.1074ZM33.708 12.5508H31.979L27.542 5.4893V12.5508H25.813V2.59769H27.542L31.993 9.68649V2.59769H33.708V12.5508ZM43.347 9.3106C43.247 10.3724 42.855 11.2018 42.171 11.7988C41.488 12.3913 40.578 12.6878 39.444 12.6878C38.651 12.6878 37.951 12.5007 37.345 12.127C36.744 11.7487 36.279 11.2132 35.951 10.5205C35.622 9.8278 35.452 9.0235 35.438 8.1074V7.1778C35.438 6.239 35.604 5.4118 35.937 4.6963C36.27 3.9808 36.746 3.4294 37.366 3.042C37.99 2.6546 38.71 2.461 39.526 2.461C40.624 2.461 41.508 2.7595 42.178 3.3565C42.848 3.9535 43.238 4.7966 43.347 5.8858H41.624C41.542 5.1703 41.333 4.6553 40.995 4.3408C40.663 4.0218 40.173 3.8623 39.526 3.8623C38.774 3.8623 38.195 4.138 37.789 4.6895C37.388 5.2363 37.183 6.0407 37.174 7.1026V7.9844C37.174 9.0599 37.366 9.8802 37.748 10.4453C38.136 11.0104 38.701 11.293 39.444 11.293C40.123 11.293 40.633 11.1403 40.975 10.835C41.317 10.5296 41.533 10.0215 41.624 9.3106H43.347ZM40.038 12.5648L39.963 12.9338C40.647 13.0568 40.989 13.4508 40.989 14.1158C40.989 14.5948 40.793 14.9688 40.401 15.2378C40.009 15.5058 39.46 15.6408 38.753 15.6408L38.705 14.7038C39.006 14.7038 39.236 14.6498 39.396 14.5398C39.56 14.4348 39.642 14.2868 39.642 14.0958C39.642 13.8908 39.56 13.7468 39.396 13.6648C39.236 13.5878 38.974 13.5378 38.61 13.5148L38.828 12.5648H40.038ZM50.47 10.2334H46.615L45.808 12.5508H44.01L47.77 2.59769H49.322L53.088 12.5508H51.284L50.47 10.2334ZM47.1 8.8389H49.985L48.542 4.71L47.1 8.8389ZM51.078 0.0819931C51.078 0.583393 50.933 1.0003 50.641 1.333C50.354 1.6657 49.992 1.83199 49.554 1.83199C49.376 1.83199 49.221 1.8138 49.089 1.7774C48.962 1.7363 48.777 1.6475 48.536 1.5108C48.299 1.374 48.13 1.29199 48.03 1.26469C47.934 1.23729 47.827 1.22369 47.708 1.22369C47.535 1.22369 47.387 1.2897 47.264 1.4219C47.146 1.5495 47.086 1.7181 47.086 1.9278L46.068 1.8731C46.068 1.3718 46.211 0.950198 46.498 0.608398C46.79 0.266598 47.152 0.0956955 47.585 0.0956955C47.845 0.0956955 48.157 0.198297 48.522 0.403297C48.891 0.608397 49.194 0.710999 49.431 0.710999C49.604 0.710999 49.752 0.6472 49.875 0.5196C49.998 0.3874 50.06 0.2142 50.06 0L51.078 0.0819931ZM62.016 7.834C62.016 8.8093 61.847 9.666 61.51 10.4043C61.173 11.138 60.69 11.7031 60.061 12.0996C59.437 12.4916 58.717 12.6878 57.901 12.6878C57.094 12.6878 56.374 12.4916 55.741 12.0996C55.112 11.7031 54.624 11.1403 54.278 10.4112C53.936 9.68199 53.763 8.8412 53.758 7.88869V7.32809C53.758 6.35739 53.929 5.5007 54.271 4.7578C54.617 4.015 55.103 3.44759 55.727 3.05569C56.356 2.65919 57.076 2.461 57.887 2.461C58.698 2.461 59.416 2.6569 60.04 3.0488C60.669 3.4362 61.155 3.9968 61.496 4.7305C61.838 5.4597 62.011 6.3096 62.016 7.2803V7.834ZM60.286 7.3145C60.286 6.2116 60.077 5.3662 59.658 4.7783C59.243 4.1904 58.653 3.8965 57.887 3.8965C57.14 3.8965 56.554 4.1904 56.13 4.7783C55.711 5.3617 55.497 6.1888 55.488 7.2598V7.834C55.488 8.9278 55.7 9.77309 56.123 10.3701C56.552 10.9671 57.144 11.2656 57.901 11.2656C58.666 11.2656 59.254 10.974 59.664 10.3906C60.079 9.80729 60.286 8.9551 60.286 7.834V7.3145ZM65.338 9.61819H63.91L63.752 2.59769H65.502L65.338 9.61819ZM63.704 11.7647C63.704 11.5049 63.789 11.2907 63.957 11.1221C64.126 10.9489 64.356 10.8623 64.648 10.8623C64.939 10.8623 65.17 10.9489 65.338 11.1221C65.507 11.2907 65.591 11.5049 65.591 11.7647C65.591 12.0153 65.509 12.225 65.345 12.3936C65.181 12.5618 64.949 12.6468 64.648 12.6468C64.347 12.6468 64.115 12.5618 63.951 12.3936C63.786 12.225 63.704 12.0153 63.704 11.7647Z" fill="white"/>
</svg>
