<svg width="36" height="36" viewBox="0 0 36 36" fill="none" xmlns="http://www.w3.org/2000/svg">
<path d="M35.9238 16.8106L33.1997 10.9646C33.066 10.6777 32.7781 10.4942 32.4615 10.4942H24.9128C24.4631 10.4942 24.0983 10.8588 24.0983 11.3086C24.0983 11.7585 24.4631 12.1231 24.9128 12.1231H31.9424L34.371 17.3351V25.4441H33.4952C33.1012 22.8426 30.85 20.8423 28.1403 20.8423C25.4305 20.8423 23.1794 22.8426 22.7853 25.4441H13.2147C13.1271 24.8661 12.9468 24.3185 12.6912 23.8151H22.4695C22.9192 23.8151 23.2839 23.4505 23.2839 23.0007V5.13961C23.2839 4.68978 22.9192 4.32513 22.4695 4.32513H0.81448C0.364724 4.32513 0 4.68978 0 5.13961V23.0007C0 23.4506 0.364724 23.8152 0.81448 23.8152H3.02832C2.77273 24.3186 2.59233 24.8661 2.50485 25.4442H0.81448C0.364724 25.4442 0 25.8088 0 26.2587C0 26.7085 0.364724 27.0731 0.81448 27.0731H2.50477C2.89881 29.6747 5.14995 31.675 7.85973 31.675C10.5695 31.675 12.8206 29.6747 13.2147 27.0731H22.7853C23.1794 29.6747 25.4305 31.675 28.1403 31.675C30.85 31.675 33.1012 29.6747 33.4952 27.0731H35.1855C35.6353 27.0731 36 26.7085 36 26.2587V17.1547C36 17.0358 35.974 16.9184 35.9238 16.8106ZM1.62896 5.95409H21.6549V22.1863H11.4248C10.4714 21.3506 9.22414 20.8424 7.85973 20.8424C6.49531 20.8424 5.2481 21.3506 4.29467 22.1863H1.62896V5.95409ZM7.85973 30.0459C5.77132 30.0459 4.0724 28.3469 4.0724 26.2586C4.0724 24.1703 5.77132 22.4713 7.85973 22.4713C9.94814 22.4713 11.6471 24.1703 11.6471 26.2586C11.6471 28.3469 9.94814 30.0459 7.85973 30.0459ZM28.1403 30.0459C26.0519 30.0459 24.3529 28.3469 24.3529 26.2586C24.3529 24.1703 26.0519 22.4713 28.1403 22.4713C30.2283 22.4713 31.927 24.1697 31.9276 26.2575C31.9276 26.2578 31.9275 26.2583 31.9275 26.2586C31.9275 26.2589 31.9276 26.2593 31.9276 26.2596C31.927 28.3476 30.2283 30.0459 28.1403 30.0459Z" fill="#5666F9"/>
<path d="M31.9688 17.9691C31.9693 17.9691 31.9699 17.9691 31.9705 17.9691C32.4203 17.9691 32.7849 17.6045 32.7849 17.1546C32.7849 17.0133 32.749 16.8804 32.6857 16.7645L31.2864 13.7615C31.1526 13.4746 30.8647 13.2911 30.5481 13.2911H25.2664C24.8166 13.2911 24.4519 13.6557 24.4519 14.1056V17.1546C24.4519 17.6045 24.8166 17.9691 25.2664 17.9691H31.9688ZM26.0809 14.9201H30.0291L30.6908 16.3402H26.0809V14.9201Z" fill="#5666F9"/>
<path d="M22 5H1V23L4 23.5L6 22H8.5L11.5 23H22V5Z" fill="#5666F9"/>
</svg>
