<svg width="36" height="28" viewBox="0 0 36 28" fill="none" xmlns="http://www.w3.org/2000/svg">
<path d="M35.9238 12.8106L33.1997 6.96461C33.066 6.67767 32.7781 6.49417 32.4615 6.49417H24.9128C24.4631 6.49417 24.0983 6.85881 24.0983 7.30865C24.0983 7.75848 24.4631 8.12313 24.9128 8.12313H31.9424L34.371 13.3351V21.4441H33.4952C33.1012 18.8426 30.85 16.8423 28.1403 16.8423C25.4305 16.8423 23.1794 18.8426 22.7853 21.4441H13.2147C13.1271 20.8661 12.9468 20.3185 12.6912 19.8151H22.4695C22.9192 19.8151 23.2839 19.4505 23.2839 19.0007V1.13961C23.2839 0.689777 22.9192 0.325134 22.4695 0.325134H0.81448C0.364724 0.325134 0 0.689777 0 1.13961V19.0007C0 19.4506 0.364724 19.8152 0.81448 19.8152H3.02832C2.77273 20.3186 2.59233 20.8661 2.50485 21.4442H0.81448C0.364724 21.4442 0 21.8088 0 22.2587C0 22.7085 0.364724 23.0731 0.81448 23.0731H2.50477C2.89881 25.6747 5.14995 27.675 7.85973 27.675C10.5695 27.675 12.8206 25.6747 13.2147 23.0731H22.7853C23.1794 25.6747 25.4305 27.675 28.1403 27.675C30.85 27.675 33.1012 25.6747 33.4952 23.0731H35.1855C35.6353 23.0731 36 22.7085 36 22.2587V13.1547C36 13.0358 35.974 12.9184 35.9238 12.8106ZM1.62896 1.95409H21.6549V18.1863H11.4248C10.4714 17.3506 9.22414 16.8424 7.85973 16.8424C6.49531 16.8424 5.2481 17.3506 4.29467 18.1863H1.62896V1.95409ZM7.85973 26.0459C5.77132 26.0459 4.0724 24.3469 4.0724 22.2586C4.0724 20.1703 5.77132 18.4713 7.85973 18.4713C9.94814 18.4713 11.6471 20.1703 11.6471 22.2586C11.6471 24.3469 9.94814 26.0459 7.85973 26.0459ZM28.1403 26.0459C26.0519 26.0459 24.3529 24.3469 24.3529 22.2586C24.3529 20.1703 26.0519 18.4713 28.1403 18.4713C30.2283 18.4713 31.927 20.1697 31.9276 22.2575C31.9276 22.2578 31.9275 22.2583 31.9275 22.2586C31.9275 22.2589 31.9276 22.2593 31.9276 22.2596C31.927 24.3476 30.2283 26.0459 28.1403 26.0459Z" fill="#505FE7"/>
<path d="M31.9688 13.9691C31.9693 13.9691 31.9699 13.9691 31.9705 13.9691C32.4203 13.9691 32.7849 13.6045 32.7849 13.1546C32.7849 13.0133 32.749 12.8804 32.6857 12.7645L31.2864 9.76152C31.1526 9.47458 30.8647 9.29108 30.5481 9.29108H25.2664C24.8166 9.29108 24.4519 9.65572 24.4519 10.1056V13.1546C24.4519 13.6045 24.8166 13.9691 25.2664 13.9691H31.9688ZM26.0809 10.9201H30.0291L30.6908 12.3402H26.0809V10.9201Z" fill="#505FE7"/>
</svg>
