<svg width="25" height="25" viewBox="0 0 25 25" fill="none" xmlns="http://www.w3.org/2000/svg">
<g filter="url(#filter0_d)">
<path d="M13.9277 10.5254C14.2945 10.5254 14.5918 10.2281 14.5918 9.86133C14.5918 9.49458 14.2945 9.19727 13.9277 9.19727C13.561 9.19727 13.2637 9.49458 13.2637 9.86133C13.2637 10.2281 13.561 10.5254 13.9277 10.5254Z" fill="white"/>
<path d="M13.9277 7.63672C14.2945 7.63672 14.5918 7.33941 14.5918 6.97266C14.5918 6.6059 14.2945 6.30859 13.9277 6.30859C13.561 6.30859 13.2637 6.6059 13.2637 6.97266C13.2637 7.33941 13.561 7.63672 13.9277 7.63672Z" fill="white"/>
<path d="M11.0391 10.5254C11.4058 10.5254 11.7031 10.2281 11.7031 9.86133C11.7031 9.49458 11.4058 9.19727 11.0391 9.19727C10.6723 9.19727 10.375 9.49458 10.375 9.86133C10.375 10.2281 10.6723 10.5254 11.0391 10.5254Z" fill="white"/>
<path d="M11.0391 7.63672C11.4058 7.63672 11.7031 7.33941 11.7031 6.97266C11.7031 6.6059 11.4058 6.30859 11.0391 6.30859C10.6723 6.30859 10.375 6.6059 10.375 6.97266C10.375 7.33941 10.6723 7.63672 11.0391 7.63672Z" fill="white"/>
<path d="M11.0391 13.4141C11.4058 13.4141 11.7031 13.1168 11.7031 12.75C11.7031 12.3832 11.4058 12.0859 11.0391 12.0859C10.6723 12.0859 10.375 12.3832 10.375 12.75C10.375 13.1168 10.6723 13.4141 11.0391 13.4141Z" fill="white"/>
<path d="M16.8164 7.63672C17.1832 7.63672 17.4805 7.33941 17.4805 6.97266C17.4805 6.6059 17.1832 6.30859 16.8164 6.30859C16.4497 6.30859 16.1523 6.6059 16.1523 6.97266C16.1523 7.33941 16.4497 7.63672 16.8164 7.63672Z" fill="white"/>
<path d="M8.15039 7.63672C8.51714 7.63672 8.81445 7.33941 8.81445 6.97266C8.81445 6.6059 8.51714 6.30859 8.15039 6.30859C7.78364 6.30859 7.48633 6.6059 7.48633 6.97266C7.48633 7.33941 7.78364 7.63672 8.15039 7.63672Z" fill="white"/>
<path d="M18.0116 9.76172C16.3639 9.76172 15.0233 11.1023 15.0233 12.75C15.0233 13.308 15.1773 13.8308 15.4446 14.2782L13.8565 15.8664C13.5972 16.1257 13.5972 16.5461 13.8565 16.8055C13.9862 16.9352 14.1561 17 14.3261 17C14.496 17 14.666 16.9352 14.7956 16.8055L16.3612 15.2399C16.8345 15.5546 17.4019 15.7383 18.0116 15.7383C19.6594 15.7383 20.9999 14.3977 20.9999 12.75C20.9999 11.1023 19.6594 9.76172 18.0116 9.76172ZM18.0116 14.4102C17.0962 14.4102 16.3515 13.6654 16.3515 12.75C16.3515 11.8346 17.0962 11.0898 18.0116 11.0898C18.927 11.0898 19.6718 11.8346 19.6718 12.75C19.6718 13.6654 18.927 14.4102 18.0116 14.4102Z" fill="white"/>
<path d="M8.15039 13.4141C8.51714 13.4141 8.81445 13.1168 8.81445 12.75C8.81445 12.3832 8.51714 12.0859 8.15039 12.0859C7.78364 12.0859 7.48633 12.3832 7.48633 12.75C7.48633 13.1168 7.78364 13.4141 8.15039 13.4141Z" fill="white"/>
<path d="M18.3438 1.32812H17.4805V0.664062C17.4805 0.297301 17.1832 0 16.8164 0C16.4496 0 16.1523 0.297301 16.1523 0.664062V1.32812H13.1309V0.664062C13.1309 0.297301 12.8336 0 12.4668 0C12.1 0 11.8027 0.297301 11.8027 0.664062V1.32812H8.81445V0.664062C8.81445 0.297301 8.51715 0 8.15039 0C7.78363 0 7.48633 0.297301 7.48633 0.664062V1.32812H6.65625C5.19159 1.32812 4 2.51972 4 3.98438V14.3438C4 15.8084 5.19159 17 6.65625 17H11.0059C11.3726 17 11.6699 16.7027 11.6699 16.3359C11.6699 15.9692 11.3726 15.6719 11.0059 15.6719H6.65625C5.92392 15.6719 5.32812 15.0761 5.32812 14.3438V3.98438C5.32812 3.25205 5.92392 2.65625 6.65625 2.65625H7.48633V3.32031C7.48633 3.68707 7.78363 3.98438 8.15039 3.98438C8.51715 3.98438 8.81445 3.68707 8.81445 3.32031V2.65625H11.8027V3.32031C11.8027 3.68707 12.1 3.98438 12.4668 3.98438C12.8336 3.98438 13.1309 3.68707 13.1309 3.32031V2.65625H16.1523V3.32031C16.1523 3.68707 16.4496 3.98438 16.8164 3.98438C17.1832 3.98438 17.4805 3.68707 17.4805 3.32031V2.65625H18.3438C19.0761 2.65625 19.6719 3.25205 19.6719 3.98438V7.96875C19.6719 8.33551 19.9692 8.63281 20.3359 8.63281C20.7027 8.63281 21 8.33551 21 7.96875V3.98438C21 2.51972 19.8084 1.32812 18.3438 1.32812Z" fill="white"/>
<path d="M8.15039 10.5254C8.51714 10.5254 8.81445 10.2281 8.81445 9.86133C8.81445 9.49458 8.51714 9.19727 8.15039 9.19727C7.78364 9.19727 7.48633 9.49458 7.48633 9.86133C7.48633 10.2281 7.78364 10.5254 8.15039 10.5254Z" fill="white"/>
</g>
</svg>
