<svg width="18" height="20" viewBox="0 0 18 20" fill="none" xmlns="http://www.w3.org/2000/svg">
<path d="M9 0C4.02944 0 0 3.28325 0 7.33333C0 11.274 8.32991 19.5297 8.68459 19.879C8.76232 19.9556 8.87799 20 9 20C9.12201 20 9.23768 19.9556 9.31541 19.879C9.67009 19.5297 18 11.274 18 7.33333C18 3.28325 13.9706 0 9 0ZM9 19.137C7.46059 17.5713 0.818182 10.624 0.818182 7.33333C0.823347 3.65317 4.48348 0.670875 9 0.666667C13.5166 0.670875 17.1767 3.65317 17.1818 7.33333C17.1818 10.6233 10.5394 17.571 9 19.137Z" fill="white"/>
<path d="M14.5676 6.06933L9.24944 2.736C9.10232 2.64375 8.89747 2.64375 8.75035 2.736L3.43217 6.06933C3.25324 6.18171 3.22001 6.39104 3.35792 6.53683C3.43534 6.61867 3.5549 6.66663 3.68172 6.66667H4.90899V10.3333C4.90899 10.5174 5.09216 10.6667 5.31808 10.6667H12.6817C12.9076 10.6667 13.0908 10.5174 13.0908 10.3333V6.66667H14.3181C14.544 6.66658 14.7271 6.51725 14.727 6.33317C14.7269 6.22983 14.6681 6.13242 14.5676 6.06933ZM9.81808 10H8.18172V8H9.81808V10ZM12.6817 6C12.4558 6 12.2726 6.14925 12.2726 6.33333V10H10.6363V7.66667C10.6363 7.48258 10.4531 7.33333 10.2272 7.33333H7.77263C7.54671 7.33333 7.36353 7.48258 7.36353 7.66667V10H5.72717V6.33333C5.72717 6.14925 5.544 6 5.31808 6H4.88444L8.9999 3.42066L13.1154 6H12.6817Z" fill="white"/>
</svg>
