<svg width="16" height="18" viewBox="0 0 16 18" fill="none" xmlns="http://www.w3.org/2000/svg">
<path d="M13.5884 12.2374C13.4854 12.1344 13.3184 12.1344 13.2154 12.2374L11.7164 13.7363L11.0403 13.0603C10.9374 12.9573 10.7705 12.9573 10.6675 13.0603L9.7948 13.933C9.69177 14.036 9.69177 14.2029 9.7948 14.3058C9.7948 14.3058 11.5287 16.0398 11.5301 16.0412C11.6316 16.1428 11.8015 16.1428 11.9029 16.0412C11.9029 16.0412 14.457 13.4872 14.4611 13.4831C14.5629 13.3812 14.5627 13.2119 14.4611 13.1101L13.5884 12.2374ZM11.7164 15.4818L10.354 14.1195L10.8539 13.6196L11.5299 14.2957C11.6329 14.3987 11.7999 14.3987 11.9028 14.2957L13.4019 12.7967L13.9016 13.2966L11.7164 15.4818Z" fill="white"/>
<path d="M2.1831 3.1403C2.32867 3.1403 2.44678 3.0222 2.44678 2.87663V2.42509C2.44678 2.27953 2.32867 2.16142 2.1831 2.16142C2.0374 2.16142 1.91943 2.27953 1.91943 2.42509V2.87663C1.91943 3.0222 2.0374 3.1403 2.1831 3.1403Z" fill="white"/>
<path d="M7.43654 2.87663V2.42509C7.43654 2.27953 7.31842 2.16142 7.17286 2.16142C7.02718 2.16142 6.90918 2.27953 6.90918 2.42509V2.87663C6.90918 3.0222 7.02718 3.1403 7.17286 3.1403C7.31842 3.1403 7.43654 3.0222 7.43654 2.87663Z" fill="white"/>
<path d="M4.67789 3.38132C4.99388 3.38132 5.29067 3.24921 5.49213 3.01877C5.58797 2.90905 5.57685 2.7426 5.46712 2.64675C5.35752 2.55089 5.19093 2.56201 5.09509 2.6716C4.99388 2.78751 4.84171 2.85398 4.67789 2.85398C4.51394 2.85398 4.36189 2.78751 4.26056 2.6716C4.16467 2.56201 3.99813 2.55089 3.88853 2.64675C3.7788 2.7426 3.76768 2.90905 3.86352 3.01877C4.06498 3.24921 4.36176 3.38132 4.67789 3.38132Z" fill="white"/>
<path d="M2.1831 7.07478H9.98119C10.1268 7.07478 10.2449 6.95683 10.2449 6.81109C10.2449 6.66554 10.1268 6.54745 9.98119 6.54745H2.1831C2.0374 6.54745 1.91943 6.66554 1.91943 6.81109C1.91943 6.95683 2.0374 7.07478 2.1831 7.07478Z" fill="white"/>
<path d="M2.1831 8.97915H9.98119C10.1268 8.97915 10.2449 8.86115 10.2449 8.71546C10.2449 8.56991 10.1268 8.45178 9.98119 8.45178H2.1831C2.0374 8.45178 1.91943 8.56991 1.91943 8.71546C1.91943 8.86115 2.0374 8.97915 2.1831 8.97915Z" fill="white"/>
<path d="M2.1831 10.8835H7.16003C7.30564 10.8835 7.42372 10.7654 7.42372 10.6198C7.42372 10.4742 7.30564 10.3561 7.16003 10.3561H2.1831C2.0374 10.3561 1.91943 10.4742 1.91943 10.6198C1.91943 10.7654 2.0374 10.8835 2.1831 10.8835Z" fill="white"/>
<path d="M2.1831 12.7878H7.1728C7.3184 12.7878 7.43648 12.6697 7.43648 12.5241C7.43648 12.3784 7.3184 12.2605 7.1728 12.2605H2.1831C2.0374 12.2605 1.91943 12.3784 1.91943 12.5241C1.91943 12.6697 2.0374 12.7878 2.1831 12.7878Z" fill="white"/>
<path d="M1.07062 16.8198H9.35223C10.0547 17.547 11.0393 18 12.128 18C12.9234 18 13.6873 17.7598 14.3375 17.3054C14.4568 17.2219 14.4859 17.0575 14.4024 16.9382C14.319 16.8188 14.1546 16.7897 14.0353 16.8732C13.4742 17.2653 12.8147 17.4726 12.128 17.4726C10.3185 17.4726 8.79453 15.948 8.79453 14.1393C8.79453 12.342 10.3212 10.806 12.128 10.806C13.9425 10.806 15.4612 12.3249 15.4612 14.1393C15.4612 14.8995 15.2119 15.6154 14.7402 16.2098C14.6497 16.3238 14.6688 16.4896 14.7829 16.5802C14.8969 16.6706 15.0628 16.6516 15.1533 16.5376C15.6997 15.8492 15.9885 15.0198 15.9885 14.1393C15.9885 12.4603 14.9111 11.0283 13.4113 10.4982C13.4113 10.4982 13.4113 4.31927 13.4113 4.31914C13.4113 4.25336 13.3842 4.17728 13.3341 4.13278C13.3341 4.13278 9.27876 0.0773165 9.27863 0.0773165C9.22974 0.0282898 9.16137 0 9.09214 0H1.07062C0.480241 0 0 0.480241 0 1.07062V3.98268C0 4.12825 0.118103 4.24635 0.26367 4.24635C0.40924 4.24635 0.527344 4.12825 0.527344 3.98268V1.07062C0.527344 0.771101 0.771101 0.527344 1.07062 0.527344H8.82863V3.48912C8.82863 4.09213 9.31913 4.58282 9.9223 4.58282H12.8841V10.353C12.6354 10.3035 12.3816 10.2787 12.128 10.2787C9.99919 10.2787 8.26734 12.0105 8.26734 14.1393C8.26734 14.9013 8.49766 15.66 8.92309 16.2925H1.07062C0.771101 16.2925 0.527344 16.0487 0.527344 15.7492V5.0345C0.527344 4.88877 0.40924 4.77082 0.26367 4.77082C0.118103 4.77082 0 4.88877 0 5.0345V15.7492C0 16.3394 0.480241 16.8198 1.07062 16.8198ZM9.9223 4.05547C9.61003 4.05547 9.35582 3.80141 9.35582 3.48912V0.90019L12.5111 4.05547H9.9223Z" fill="white"/>
</svg>
