<svg width="20" height="19" viewBox="0 0 20 19" fill="none" xmlns="http://www.w3.org/2000/svg">
<path d="M14.1772 0H2.69284C2.04667 0 1.52097 0.499417 1.52097 1.11328V4.89844C1.52097 5.10337 1.69589 5.26953 1.91159 5.26953C2.1273 5.26953 2.30222 5.10337 2.30222 4.89844V1.11328C2.30222 0.908661 2.47745 0.742188 2.69284 0.742188H14.1772C14.3926 0.742188 14.5678 0.908661 14.5678 1.11328V14.918C14.5678 15.1226 14.3926 15.2891 14.1772 15.2891H2.69284C2.47745 15.2891 2.30222 15.1226 2.30222 14.918V8.028C2.30222 7.82302 2.1273 7.65691 1.91159 7.65691C1.69589 7.65691 1.52097 7.82302 1.52097 8.028V14.918C1.52097 15.5318 2.04667 16.0312 2.69284 16.0312H14.1772C14.8234 16.0312 15.3491 15.5318 15.3491 14.918V1.11328C15.3491 0.499417 14.8234 0 14.1772 0Z" fill="white"/>
<path d="M2.18773 6.29745C2.11511 6.22844 2.01433 6.18912 1.91159 6.18912C1.80886 6.18912 1.70808 6.22844 1.63542 6.29745C1.56273 6.36688 1.52097 6.46261 1.52097 6.55985C1.52097 6.65781 1.56276 6.75318 1.63542 6.82256C1.70808 6.89157 1.80886 6.9313 1.91159 6.9313C2.01429 6.9313 2.11507 6.89157 2.18773 6.82256C2.26042 6.75355 2.30222 6.65781 2.30222 6.55985C2.30222 6.46224 2.26038 6.36688 2.18773 6.29745Z" fill="white"/>
<path d="M3.75258 16.8844C3.67992 16.8154 3.57957 16.7757 3.47641 16.7757C3.37367 16.7757 3.2729 16.8154 3.20028 16.8844C3.12758 16.9534 3.08578 17.0492 3.08578 17.1468C3.08578 17.2447 3.12762 17.3401 3.20028 17.4091C3.2729 17.4785 3.37367 17.5179 3.47641 17.5179C3.57957 17.5179 3.67992 17.4785 3.75258 17.4091C3.82528 17.3401 3.86703 17.2447 3.86703 17.1468C3.86703 17.0492 3.82524 16.9534 3.75258 16.8844Z" fill="white"/>
<path d="M16.5235 1.48671C16.3077 1.48671 16.1328 1.65285 16.1328 1.8578V16.4047C16.1328 16.6093 15.9576 16.7758 15.7422 16.7758H5.03904C4.82337 16.7758 4.64844 16.9419 4.64844 17.1469C4.64844 17.3518 4.82337 17.5179 5.03904 17.5179H15.7422C16.3884 17.5179 16.914 17.0186 16.914 16.4047V1.8578C16.914 1.65285 16.7391 1.48671 16.5235 1.48671Z" fill="white"/>
<path d="M18.0884 2.96875C17.8727 2.96875 17.6978 3.13489 17.6978 3.33984V17.8867C17.6978 18.0913 17.5226 18.2578 17.3072 18.2578H5.04154C4.82582 18.2578 4.65091 18.424 4.65091 18.6289C4.65091 18.8338 4.82582 19 5.04154 19H17.3072C17.9533 19 18.479 18.5006 18.479 17.8867V3.33984C18.479 3.13489 18.3041 2.96875 18.0884 2.96875Z" fill="white"/>
<path d="M7.84908 2.74609H4.09909C3.88339 2.74609 3.70847 2.91223 3.70847 3.11719V6.67969C3.70847 6.88462 3.88339 7.05078 4.09909 7.05078H7.84908C8.0648 7.05078 8.23971 6.88462 8.23971 6.67969V3.11719C8.23971 2.91223 8.0648 2.74609 7.84908 2.74609ZM7.45846 6.30859H4.48972V3.48828H7.45846V6.30859Z" fill="white"/>
<path d="M6.5922 8.73563C6.43965 8.59075 6.19239 8.59071 6.03975 8.73563L5.00139 9.72212L4.51855 9.26338C4.36601 9.1185 4.11875 9.1185 3.96609 9.26338C3.81355 9.4083 3.81355 9.64329 3.96609 9.78821L4.72515 10.5093C4.79843 10.5789 4.89778 10.618 5.00139 10.618C5.10499 10.618 5.20427 10.5789 5.27764 10.5093L6.5922 9.26041C6.74475 9.11554 6.74475 8.88055 6.5922 8.73563Z" fill="white"/>
<path d="M12.9924 9.2402H8.43506C8.21934 9.2402 8.04443 9.40636 8.04443 9.61134C8.04443 9.81628 8.21934 9.98239 8.43506 9.98239H12.9924C13.208 9.98239 13.383 9.81628 13.383 9.61134C13.383 9.40636 13.208 9.2402 12.9924 9.2402Z" fill="white"/>
<path d="M12.771 2.74609H10.0366C9.82092 2.74609 9.64597 2.91223 9.64597 3.11719C9.64597 3.32214 9.82092 3.48828 10.0366 3.48828H12.771C12.9867 3.48828 13.1616 3.32214 13.1616 3.11719C13.1616 2.91223 12.9867 2.74609 12.771 2.74609Z" fill="white"/>
<path d="M12.771 4.52734H10.0366C9.82092 4.52734 9.64597 4.6935 9.64597 4.89844C9.64597 5.10337 9.82092 5.26953 10.0366 5.26953H12.771C12.9867 5.26953 13.1616 5.10337 13.1616 4.89844C13.1616 4.6935 12.9867 4.52734 12.771 4.52734Z" fill="white"/>
<path d="M12.771 6.30859H10.0366C9.82092 6.30859 9.64597 6.47475 9.64597 6.67969C9.64597 6.88462 9.82092 7.05078 10.0366 7.05078H12.771C12.9867 7.05078 13.1616 6.88462 13.1616 6.67969C13.1616 6.47475 12.9867 6.30859 12.771 6.30859Z" fill="white"/>
<path d="M6.5922 11.5695C6.43965 11.4247 6.19239 11.4246 6.03975 11.5695L5.00139 12.556L4.51855 12.0973C4.36601 11.9524 4.11875 11.9525 3.96609 12.0973C3.81355 12.2422 3.81355 12.4772 3.96609 12.6221L4.72515 13.3432C4.79843 13.4128 4.89778 13.4519 5.00139 13.4519C5.10499 13.4519 5.20427 13.4128 5.27764 13.3432L6.5922 12.0944C6.74475 11.9494 6.74475 11.7145 6.5922 11.5695Z" fill="white"/>
<path d="M12.9924 12.0605H8.43506C8.21934 12.0605 8.04443 12.2267 8.04443 12.4317C8.04443 12.6366 8.21934 12.8027 8.43506 12.8027H12.9924C13.208 12.8027 13.383 12.6366 13.383 12.4317C13.383 12.2267 13.208 12.0605 12.9924 12.0605Z" fill="white"/>
</svg>
