<svg width="145" height="162" viewBox="0 0 145 162" fill="none" xmlns="http://www.w3.org/2000/svg">
<path d="M69.2043 160.441C69.2044 160.441 69.2044 160.441 69.2045 160.441C69.2047 160.441 69.2047 160.442 69.2049 160.442L70.6552 161.245C71.5033 161.715 72.5336 161.715 73.3817 161.245L74.8321 160.442C74.8322 160.442 74.8322 160.442 74.8322 160.442C74.8322 160.441 74.8323 160.441 74.8324 160.441L117.017 137.077L141.459 123.541C143.05 122.66 144.037 120.985 144.037 119.167V118.69V36.6914V36.1727C144.037 34.2167 142.896 32.4403 141.117 31.6263L140.646 31.4104L132.599 27.7274L74.0991 0.952402C72.7778 0.347635 71.2587 0.347634 69.9374 0.9524L11.4375 27.7274L3.39085 31.4104L2.91917 31.6263C1.14059 32.4403 0 34.2167 0 36.1727V36.6914V118.69V119.167C0 120.985 0.98698 122.66 2.57751 123.541L27.0194 137.077L69.2043 160.441ZM91.1785 56.1106L74.4408 65.3807C72.9336 66.2154 71.1029 66.2154 69.5958 65.3807L52.8582 56.1106L27.3503 41.9831C23.7615 39.9955 23.9616 34.7701 27.6919 33.0627L69.9374 13.7273C71.2587 13.1225 72.7778 13.1225 74.0991 13.7273L116.345 33.0628C120.075 34.7701 120.275 39.9955 116.686 41.9831L91.1785 56.1106ZM85.2488 141.394C81.9162 143.239 77.8263 140.829 77.8263 137.02V79.7307C77.8263 77.9125 78.8133 76.2376 80.4038 75.3567L124.998 50.6585C128.331 48.8128 132.421 51.2229 132.421 55.0324V112.321C132.421 114.14 131.434 115.814 129.843 116.695L85.2488 141.394ZM63.6328 75.3567C65.2233 76.2376 66.2103 77.9125 66.2103 79.7307V137.02C66.2103 140.829 62.1203 143.239 58.7877 141.394L14.1937 116.695C12.6032 115.814 11.6162 114.139 11.6162 112.321V55.0323C11.6162 51.2228 15.7061 48.8126 19.0387 50.6584L63.6328 75.3567Z" fill="#E9E9E9"/>
</svg>
