<svg width="20" height="36" viewBox="0 0 20 36" fill="none" xmlns="http://www.w3.org/2000/svg">
<path d="M18.9985 0.0074904L14.3302 0C9.08543 0 5.69605 3.47742 5.69605 8.85965V12.9445H1.00224C0.59664 12.9445 0.268188 13.2734 0.268188 13.679V19.5975C0.268188 20.0031 0.597014 20.3316 1.00224 20.3316H5.69605V35.2659C5.69605 35.6715 6.0245 36 6.4301 36H12.5542C12.9598 36 13.2882 35.6712 13.2882 35.2659V20.3316H18.7764C19.182 20.3316 19.5105 20.0031 19.5105 19.5975L19.5127 13.679C19.5127 13.4842 19.4352 13.2977 19.2977 13.1599C19.1603 13.0221 18.973 12.9445 18.7783 12.9445H13.2882V9.48173C13.2882 7.81736 13.6849 6.97244 15.8529 6.97244L18.9977 6.97132C19.403 6.97132 19.7314 6.64249 19.7314 6.23726V0.74155C19.7314 0.336694 19.4033 0.00823944 18.9985 0.0074904Z" fill="#5987DE"/>
</svg>
