<svg width="37" height="38" viewBox="0 0 37 38" fill="none" xmlns="http://www.w3.org/2000/svg">
<path d="M36.8372 16.9534H19.6465V22.6836H30.1346C28.57 27.6654 23.9168 31.279 18.4185 31.279C11.6368 31.279 6.13953 25.7813 6.13953 18.9999C6.13953 12.2183 11.637 6.72097 18.4185 6.72097C21.8335 6.72097 24.9223 8.11543 27.148 10.3655L31.3075 5.84443C27.9855 2.58934 23.4369 0.581543 18.4185 0.581543C8.24628 0.581445 0 8.82773 0 18.9999C0 29.1721 8.24628 37.4186 18.4186 37.4186C27.3292 37.4186 35.1305 31.0905 36.8373 22.6837V16.9535L36.8372 16.9534Z" fill="#5987DE"/>
</svg>
